<?xml version="1.0" encoding="utf-8"?>
<!-- Generator: Adobe Illustrator 28.0.0, SVG Export Plug-In . SVG Version: 6.00 Build 0)  -->
<svg version="1.1" id="Layer_1" xmlns="http://www.w3.org/2000/svg" xmlns:xlink="http://www.w3.org/1999/xlink" x="0px" y="0px"
	 viewBox="0 0 255.12 141.73" style="enable-background:new 0 0 255.12 141.73;" xml:space="preserve">
<style type="text/css">
	.st0{fill:url(#SVGID_1_);}
	.st1{fill:#E9EFC2;}
	.st2{fill:#006837;}
	.st3{clip-path:url(#SVGID_00000033344594511964275120000005866751607930350510_);}
	.st4{fill:#434F10;}
	.st5{fill-rule:evenodd;clip-rule:evenodd;fill:#006837;}
	.st6{fill:#000C38;}
	.st7{fill-rule:evenodd;clip-rule:evenodd;fill:#FFFFFF;}
	.st8{fill:#FFFFFF;}
	.st9{font-family:'ArialMT';}
	.st10{font-size:6px;}
	.st11{font-family:'Arial-BoldMT';}
	.st12{font-size:9px;}
	.st13{font-size:8px;}
	.st14{font-size:5px;}
	.st15{fill:url(#SVGID_00000060735762964812515470000013774542002801681843_);}
	.st16{fill:url(#SVGID_00000078752527929984828880000001173878411588933528_);}
	.st17{fill:url(#SVGID_00000096766247078509171880000001987591917754439592_);}
	.st18{fill:url(#SVGID_00000169555408092540766010000005052934345849296034_);}
	.st19{fill:url(#SVGID_00000125598840204967171440000014868604416460478369_);}
	.st20{fill:url(#SVGID_00000023970295791977289150000001672831821916867205_);}
	.st21{fill:url(#SVGID_00000011031979644384440750000001092941448721101716_);}
	.st22{fill:url(#SVGID_00000083777852870726633310000003222160880610717843_);}
	.st23{fill:url(#SVGID_00000114776974394999891110000004461942523057722549_);}
	.st24{fill:url(#SVGID_00000121970863686497550820000000542829224408315552_);}
	.st25{fill:url(#SVGID_00000169542413561314928030000005103707794733043852_);}
	.st26{fill:url(#SVGID_00000148635187153041821580000001390113171688553916_);}
	.st27{fill:url(#SVGID_00000146480229958035856410000015236023353845216157_);}
	.st28{fill:url(#SVGID_00000039824428296708854520000017112808585490678956_);}
	.st29{fill:url(#SVGID_00000013169936801485917340000004743710009286683784_);}
	.st30{fill:url(#SVGID_00000126290394996858961840000001549314899044979094_);}
	.st31{fill:url(#SVGID_00000080902666315802718930000016172381188000021935_);}
	.st32{fill:url(#SVGID_00000068655732082174513240000005875884632245243548_);}
	.st33{fill:url(#SVGID_00000008120694243732163540000008385402836012274341_);}
	.st34{fill:url(#SVGID_00000005230853624426073580000005619227674323709366_);}
	.st35{fill:url(#SVGID_00000002367557075806657150000002221539007129411721_);}
	.st36{fill:url(#SVGID_00000023261451063066625670000006837155503601181086_);}
	.st37{fill:url(#SVGID_00000003827190646574121690000015776067392214257025_);}
	.st38{fill:url(#SVGID_00000150102970130601968110000010324536402473081732_);}
	.st39{fill:url(#SVGID_00000160162806314848472820000012946783020850718598_);}
	.st40{fill:url(#SVGID_00000004523867414334750730000013701847295238686859_);}
	.st41{fill:url(#SVGID_00000092415771603128209010000001943031194576648381_);}
	.st42{fill:url(#SVGID_00000051345540932459006910000004304649719933000096_);}
	.st43{fill:url(#SVGID_00000021089915625537346550000017209843899912338848_);}
	.st44{fill:url(#SVGID_00000048497393824136066360000001872525826401703310_);}
	.st45{fill:url(#SVGID_00000085243875850739674120000017269122236699920315_);}
	.st46{fill:url(#SVGID_00000178166665290235892140000011779665562570611854_);}
	.st47{fill:url(#SVGID_00000082354673093213717240000001296659344553650858_);}
	.st48{fill:url(#SVGID_00000114037722770420406830000017577336046173450627_);}
	.st49{fill:url(#SVGID_00000127039791678922012940000011273118683895579530_);}
	.st50{fill:url(#SVGID_00000137097657333643422510000013627843559738640318_);}
	.st51{fill:url(#SVGID_00000075140877566423742330000006104076313556730535_);}
	.st52{fill:url(#SVGID_00000060750336863034438730000013970168833101452964_);}
	.st53{fill:url(#SVGID_00000060025107122412386990000018294081683091566760_);}
	.st54{fill:url(#SVGID_00000082339053643859696690000000917730663290657965_);}
	.st55{fill:url(#SVGID_00000156555189513746060390000011726831339775968917_);}
	.st56{fill:url(#SVGID_00000067208938908140230480000018218566293695018891_);}
	.st57{fill:url(#SVGID_00000025401099454362677340000007401620636939934377_);}
	.st58{fill:url(#SVGID_00000061452122983402672000000015470883362922427789_);}
	.st59{fill:url(#SVGID_00000034778141502986833630000011679221582597538457_);}
	.st60{fill:url(#SVGID_00000116231299499961820210000003141374680208080537_);}
	.st61{fill:url(#SVGID_00000160161769320945614270000002807301113079652763_);}
	.st62{fill:url(#SVGID_00000049190548946928626440000017966308051078572974_);}
	.st63{fill:url(#SVGID_00000104681685144358948530000013448417251434359738_);}
	.st64{fill:url(#SVGID_00000094617096066749688030000004005366242242743179_);}
	.st65{fill:url(#SVGID_00000135664817291021990090000009983743276268264876_);}
	.st66{fill:url(#SVGID_00000077315190456955929300000007286156829173145495_);}
	.st67{fill:url(#SVGID_00000011016870469149749860000005754517489336867720_);}
	.st68{fill:url(#SVGID_00000024722639082681033960000015346991336490996635_);}
	.st69{fill:url(#SVGID_00000130610027270026361490000008736899810969702327_);}
	.st70{fill:url(#SVGID_00000082336314646048376230000003700012979390868100_);}
	.st71{fill:url(#SVGID_00000024694280004790451590000005968280775348696962_);}
	.st72{fill:url(#SVGID_00000100366144199821730160000002921558493912820625_);}
	.st73{fill:#1A6E2E;}
	.st74{fill:#5AC381;}
	.st75{fill:#2B9241;}
	.st76{fill:#362133;}
	.st77{fill:#503D4C;}
	.st78{fill:#FBC31B;}
	.st79{fill:#FAA608;}
	.st80{fill:#A5B4E6;}
	.st81{fill:#B24D09;}
	.st82{fill:#D15907;}
	.st83{fill:#1A0018;}
	.st84{fill:#4582EB;}
	.st85{fill:#3864C1;}
	.st86{fill:#2552A8;}
	.st87{fill:#162F68;}
	.st88{fill:#655461;}
	.st89{fill:url(#SVGID_00000130622833311640857550000014569984042887371687_);}
	.st90{fill:url(#SVGID_00000123427752763389422750000004291640779515746748_);}
	.st91{fill:#607127;}
	.st92{fill-rule:evenodd;clip-rule:evenodd;fill:none;stroke:#FFFFFF;stroke-width:0.5;stroke-miterlimit:10;}
	.st93{fill:#FFAE00;}
	.st94{fill:#442828;}
	.st95{fill-rule:evenodd;clip-rule:evenodd;fill:none;stroke:#442828;stroke-width:0.5;stroke-miterlimit:10;}
	.st96{fill:#FF9626;}
	.st97{fill:#1D1D1B;}
	.st98{fill:#26421F;}
</style>
<rect x="48.19" y="-65.2" transform="matrix(-1.836970e-16 1 -1 -1.836970e-16 198.4251 -56.6928)" class="st6" width="158.74" height="272.13"/>
<rect x="0" y="0" class="st6" width="255.12" height="141.73"/>
<path class="st7" d="M18.94,124.66c-0.99-0.99-2.37-1.58-3.86-1.58s-2.84,0.59-3.83,1.58c-0.99,0.99-1.6,2.34-1.6,3.86
	c0,1.49,0.62,2.84,1.6,3.83c0.99,0.99,2.34,1.6,3.83,1.6s2.87-0.62,3.86-1.6c0.99-0.99,1.58-2.34,1.58-3.83
	C20.51,127,19.92,125.65,18.94,124.66L18.94,124.66z M15.08,124.1c2.45,0,4.42,1.97,4.42,4.42c0,2.42-1.97,4.42-4.42,4.42
	s-4.42-2-4.42-4.42C10.66,126.07,12.63,124.1,15.08,124.1L15.08,124.1z M17.61,126.75l-1.66,1.3c-0.28,0.25-0.56,0.37-0.82,0.39
	c-0.28,0-0.53-0.08-0.82-0.34l-1.62-1.35C12.73,126.72,17.55,126.72,17.61,126.75z M18.01,126.97c0,0.03,0,0.03,0,0.06v2.96
	c0,0.17-0.11,0.28-0.25,0.28h-5.32c-0.17,0-0.28-0.11-0.28-0.28v-2.96V127l1.3,1.07l0.7,0.56l0,0c0.34,0.28,0.65,0.39,0.96,0.39
	c0.31-0.03,0.62-0.17,0.96-0.45l0,0l0.68-0.54L18.01,126.97z"/>
<path class="st7" d="M16.57,79.42c-0.2,1.35-1.32,3.1-1.6,3.86c-0.11,0.25-0.39,0.28-0.48,0.03c-0.31-0.76-1.44-2.53-1.63-3.89
	c-0.17-1.27,0.82-2.17,1.83-2.14C15.7,77.28,16.74,78.18,16.57,79.42L16.57,79.42z M14.71,78.21c0.56,0,1.01,0.45,1.01,0.99
	c0,0.56-0.45,1.01-1.01,1.01c-0.56,0-1.01-0.45-1.01-1.01C13.7,78.66,14.15,78.21,14.71,78.21L14.71,78.21z M18.54,76.52
	c-0.99-0.99-2.34-1.58-3.83-1.58s-2.87,0.59-3.86,1.58c-0.96,0.99-1.58,2.34-1.58,3.86c0,1.49,0.62,2.84,1.58,3.83
	c0.99,0.99,2.37,1.6,3.86,1.6s2.84-0.62,3.83-1.6c0.99-0.99,1.6-2.34,1.6-3.83C20.15,78.86,19.53,77.51,18.54,76.52L18.54,76.52z
	 M14.71,75.96c2.45,0,4.42,1.97,4.42,4.42c0,2.42-1.97,4.42-4.42,4.42s-4.42-2-4.42-4.42C10.29,77.93,12.26,75.96,14.71,75.96
	L14.71,75.96z"/>
<path class="st7" d="M18.57,108.99c-0.99-0.99-2.37-1.6-3.86-1.6c-1.49,0-2.84,0.62-3.83,1.6c-0.99,0.99-1.6,2.34-1.6,3.83
	c0,1.49,0.62,2.87,1.6,3.86c0.99,0.99,2.34,1.58,3.83,1.58c1.49,0,2.87-0.59,3.86-1.58c0.99-0.99,1.58-2.37,1.58-3.86
	C20.15,111.33,19.56,109.98,18.57,108.99L18.57,108.99z M14.71,108.4c2.45,0,4.42,1.97,4.42,4.42c0,2.45-1.97,4.42-4.42,4.42
	c-2.45,0-4.42-1.97-4.42-4.42C10.29,110.37,12.26,108.4,14.71,108.4L14.71,108.4z M12.12,111.11c0.17-0.34,0.37-0.68,0.68-0.96
	c0.14,0.14,0.28,0.28,0.39,0.45c0.23,0.28,0.37,0.62,0.42,1.04l-0.06,0.06c-0.28,0.2-0.11,0.73,0.54,1.6
	c0.65,0.87,1.1,1.21,1.38,1.01l0.08-0.06c0.37,0.2,0.68,0.42,0.87,0.7c0.11,0.17,0.23,0.37,0.28,0.59
	c-0.34,0.17-0.73,0.28-1.13,0.31c-0.39-0.25-0.76-0.56-1.13-0.9c-0.34-0.37-0.68-0.73-0.99-1.18c-0.34-0.42-0.59-0.87-0.82-1.32
	C12.43,112.01,12.26,111.56,12.12,111.11L12.12,111.11z M12.91,110.04l0.14-0.08c0.17-0.14,0.34-0.2,0.45-0.17
	c0.11,0.03,0.25,0.14,0.39,0.37c0.42,0.56,0.42,0.99,0,1.3l-0.11,0.08c-0.06-0.37-0.2-0.73-0.42-1.04
	C13.22,110.32,13.08,110.18,12.91,110.04L12.91,110.04z M15.7,114.15l0.11-0.08c0.23-0.17,0.45-0.23,0.65-0.14
	c0.2,0.06,0.42,0.23,0.62,0.51c0.17,0.23,0.23,0.39,0.23,0.51c-0.03,0.14-0.14,0.28-0.34,0.42l-0.11,0.08
	c-0.08-0.25-0.17-0.45-0.28-0.59C16.35,114.54,16.06,114.32,15.7,114.15L15.7,114.15z"/>
<rect x="-8.5" y="35.35" class="st8" width="48.98" height="24.04"/>
<g>
	<g>
		<path class="st6" d="M24.49,55.82c-2.31,0-4.46-0.91-6.07-2.57c-1.54-1.58-2.38-3.67-2.38-5.88c0-4.66,3.79-8.45,8.45-8.45
			s8.45,3.79,8.45,8.45c0,2.21-0.85,4.3-2.38,5.88C28.96,54.9,26.8,55.82,24.49,55.82z M24.49,39.42c-4.38,0-7.94,3.56-7.94,7.94
			c0,2.08,0.79,4.04,2.24,5.53c1.51,1.56,3.54,2.41,5.7,2.41c2.17,0,4.2-0.86,5.7-2.41c1.44-1.49,2.24-3.45,2.24-5.53
			C32.44,42.99,28.87,39.42,24.49,39.42z"/>
	</g>
	<path class="st6" d="M26.37,48.63C26.37,48.63,26.37,48.63,26.37,48.63c1.32-0.68,2.24-2.06,2.24-3.66c0-2.27-1.84-4.11-4.11-4.11
		s-4.11,1.84-4.11,4.11c0,1.6,0.91,2.98,2.24,3.66c0,0,0,0,0,0c-2.01,0.66-3.56,2.35-4.01,4.45c1.49,1.54,3.58,2.49,5.89,2.49
		s4.4-0.95,5.89-2.49C29.93,50.97,28.39,49.28,26.37,48.63z"/>
</g>
<g>
	<polygon class="st8" points="263.62,123.97 167.11,123.97 136.83,96.58 -8.5,96.58 -8.5,95.62 137.2,95.62 167.48,123.01 
		263.62,123.01 	"/>
</g>
<text transform="matrix(1 0 0 1 25.6767 81.9794)" class="st8 st9 st10">your address</text>
<text transform="matrix(1 0 0 1 25.6767 130.1219)" class="st8 st9 st10">your email</text>
<g>
	<path class="st8" d="M86.7,123.09c-2.8,0-5.08,2.28-5.08,5.08c0,2.8,2.28,5.08,5.08,5.08s5.08-2.28,5.08-5.08
		C91.78,125.37,89.5,123.09,86.7,123.09z M88.99,129.45c0.05-0.41,0.07-0.83,0.07-1.28c0-0.44-0.02-0.87-0.07-1.28
		c1.26,0.31,1.98,0.85,1.98,1.28S90.25,129.13,88.99,129.45z M86.7,132.43c-0.43,0-0.96-0.72-1.28-1.98
		c0.41,0.05,0.83,0.07,1.28,0.07c0.44,0,0.87-0.02,1.28-0.07C87.67,131.71,87.13,132.43,86.7,132.43z M86.7,129.7
		c-0.52,0-1-0.04-1.44-0.1c-0.06-0.44-0.1-0.92-0.1-1.44c0-0.52,0.04-1,0.1-1.44c0.44-0.06,0.92-0.1,1.44-0.1
		c0.52,0,1,0.04,1.44,0.1c0.06,0.44,0.1,0.92,0.1,1.44c0,0.52-0.04,1-0.1,1.44C87.7,129.67,87.22,129.7,86.7,129.7z M82.44,128.17
		c0-0.43,0.72-0.96,1.98-1.28c-0.05,0.41-0.07,0.83-0.07,1.28c0,0.44,0.02,0.87,0.07,1.28C83.16,129.13,82.44,128.6,82.44,128.17z
		 M86.7,123.91c0.43,0,0.96,0.72,1.28,1.98c-0.41-0.05-0.83-0.07-1.28-0.07c-0.44,0-0.87,0.02-1.28,0.07
		C85.74,124.63,86.28,123.91,86.7,123.91z M90.69,126.68c-0.49-0.28-1.11-0.51-1.84-0.66c-0.15-0.73-0.38-1.36-0.66-1.84
		C89.35,124.61,90.26,125.53,90.69,126.68z M85.21,124.18c-0.28,0.49-0.51,1.11-0.66,1.84c-0.73,0.15-1.36,0.38-1.84,0.66
		C83.14,125.53,84.06,124.61,85.21,124.18z M82.71,129.66c0.49,0.28,1.11,0.51,1.84,0.66c0.15,0.73,0.38,1.36,0.66,1.84
		C84.06,131.73,83.14,130.81,82.71,129.66z M88.19,132.16c0.28-0.49,0.51-1.11,0.66-1.84c0.73-0.15,1.36-0.38,1.84-0.66
		C90.26,130.81,89.35,131.73,88.19,132.16z"/>
	<text transform="matrix(1 0 0 1 95.869 130.1219)" class="st8 st9 st10">your website</text>
</g>
<text transform="matrix(1 0 0 1 25.6767 114.4246)" class="st8 st9 st10">+91 00000000</text>
<text transform="matrix(1 0 0 1 170.7781 94.3603)" class="st8 st11 st12">company name</text>
<g>
	<text transform="matrix(1 0 0 1 46.203 46.2583)" class="st8 st9 st13">ARvind kumar</text>
</g>
<g>
	<text transform="matrix(1 0 0 1 54.8143 53.3926)" class="st8 st9 st10">Project Manager</text>
</g>
<g>
	<g>
		<path class="st8" d="M229.38,47.73c0-0.01,0-0.01,0-0.02c0-0.02,0-0.04-0.01-0.06c0,0,0-0.01,0-0.01
			c-0.01-0.02-0.02-0.05-0.03-0.07c0-0.01,0-0.01-0.01-0.02c-0.01-0.02-0.02-0.04-0.04-0.06c0,0,0-0.01-0.01-0.01
			c-0.02-0.02-0.03-0.04-0.05-0.06c0,0-0.01-0.01-0.01-0.01c-0.02-0.02-0.04-0.03-0.06-0.04c0,0-0.01,0-0.01-0.01
			c0,0-0.01,0-0.01-0.01l-20.68-11.94c-0.14-0.08-0.31-0.08-0.45,0l-20.68,11.94c-0.14,0.08-0.23,0.23-0.23,0.39v19.68v4.2
			c0,0.16,0.09,0.31,0.23,0.39l14.67,8.47c0.07,0.1,0.18,0.17,0.31,0.18c0,0,0.01,0,0.01,0l5.69,3.29c0.01,0.01,0.03,0.01,0.04,0.02
			c0,0,0.01,0,0.01,0c0.02,0.01,0.05,0.02,0.07,0.02c0.01,0,0.01,0,0.02,0c0.03,0,0.05,0.01,0.08,0.01c0.03,0,0.05,0,0.08-0.01
			c0.01,0,0.01,0,0.02,0c0.03-0.01,0.05-0.01,0.07-0.02c0,0,0.01,0,0.01,0c0.01-0.01,0.03-0.01,0.04-0.02l5.79-3.34c0,0,0,0,0,0
			l14.89-8.6c0.14-0.08,0.23-0.23,0.23-0.39v-4.2V47.74C229.38,47.74,229.38,47.73,229.38,47.73z M208.25,36.33l20.16,11.64
			c-0.12,0.48-0.44,1.47-1.17,2.58c-1.36,2.08-3.44,3.58-6.16,4.45c-2.13,0.68-4.55-0.27-7.73-1.68c-0.23-0.1-0.5,0-0.6,0.23
			c-0.1,0.23,0,0.5,0.23,0.6c2.49,1.11,4.65,1.98,6.62,1.98c0.6,0,1.19-0.08,1.76-0.27c4.1-1.32,6.13-3.75,7.12-5.6v15.95
			c-2.84-3.08-6.31-5.44-10.13-6.95c-0.03-0.01-0.05-0.02-0.08-0.03c-0.78-0.31-1.58-0.58-2.39-0.81c-0.03-0.01-0.07-0.03-0.11-0.03
			c-0.62-0.18-1.25-0.33-1.88-0.46c-0.04-0.01-0.07-0.02-0.11-0.02c-0.79-0.16-1.58-0.29-2.38-0.38c-0.01,0-0.02,0-0.04,0
			c-1.03-0.12-2.07-0.18-3.11-0.18c-1.05,0-2.09,0.06-3.12,0.18c-0.07-0.01-0.13,0-0.19,0.02c-0.75,0.09-1.48,0.21-2.21,0.36
			c-0.09-0.01-0.18,0.01-0.26,0.05c-0.58,0.12-1.15,0.27-1.71,0.43c-0.1-0.01-0.2,0.03-0.29,0.08c-0.74,0.22-1.46,0.46-2.18,0.74
			c-0.12,0-0.23,0.04-0.32,0.12c-3.75,1.51-7.15,3.84-9.94,6.88V53.24c4.87-2.49,9.55-3.38,14.29-2.7c0.25,0.04,0.48-0.14,0.51-0.38
			c0.04-0.25-0.14-0.48-0.38-0.51c-4.8-0.69-9.52,0.16-14.42,2.58V48L208.25,36.33z M223.05,74.49l-6.53-14.91
			c0.45,0.15,0.9,0.31,1.34,0.48l8.48,12.53L223.05,74.49z M219.23,76.69l-4.85-17.71c0.33,0.08,0.66,0.16,0.99,0.25l6.89,15.71
			L219.23,76.69z M214.41,79.48l-2.55-20.97c0.51,0.07,1.02,0.15,1.52,0.25l5.04,18.4L214.41,79.48z M198.01,77.12l5.02-18.34
			c0.5-0.1,1.01-0.19,1.52-0.26l-2.54,20.91L198.01,77.12z M194.18,74.91l6.86-15.65c0.33-0.09,0.66-0.18,1-0.26l-4.84,17.65
			L194.18,74.91z M190.11,72.56l8.43-12.46c0.45-0.17,0.9-0.34,1.35-0.49l-6.5,14.84L190.11,72.56z M205.49,58.41
			c0.76-0.08,1.53-0.12,2.31-0.14v24.5l-4.92-2.84L205.49,58.41z M208.7,58.27c0.75,0.01,1.49,0.06,2.23,0.13l2.62,21.57l-4.85,2.8
			V58.27z M188.02,67.59c2.5-2.93,5.57-5.24,8.97-6.83l-7.68,11.34l-1.3-0.75V67.59z M228.48,71.36l-1.35,0.78l-7.74-11.43
			c3.45,1.59,6.56,3.92,9.09,6.88V71.36z"/>
		<path class="st8" d="M208.3,43.43c0.59-0.46,0.87-0.89,0.86-1.32c-0.01-0.39-0.24-0.75-0.49-1.12c-0.13-0.2-0.27-0.4-0.37-0.62
			c-0.1,0.21-0.24,0.42-0.37,0.62c-0.25,0.37-0.49,0.73-0.49,1.12C207.43,42.54,207.72,42.97,208.3,43.43z"/>
		<path class="st8" d="M208.81,55.44c2.85-0.17,4.2-4.03,3.35-6.48C210.87,51.45,207.73,50.39,208.81,55.44z"/>
		<path class="st8" d="M208.75,50.15c2.11-0.13,3.1-2.97,2.48-4.79C210.27,47.21,207.95,46.43,208.75,50.15z"/>
		<path class="st8" d="M208.69,45.72c1.32-0.08,1.95-1.87,1.56-3.01C209.65,43.87,208.19,43.38,208.69,45.72z"/>
		<path class="st8" d="M207.8,55.44c1.09-5.05-2.06-3.98-3.35-6.48C203.6,51.41,204.94,55.27,207.8,55.44z"/>
		<path class="st8" d="M207.85,50.15c0.8-3.73-1.52-2.94-2.48-4.79C204.75,47.18,205.75,50.03,207.85,50.15z"/>
		<path class="st8" d="M207.92,45.72c0.5-2.34-0.96-1.85-1.56-3.01C205.97,43.85,206.59,45.64,207.92,45.72z"/>
	</g>
	<g>
		<text transform="matrix(1 0 0 1 189.4604 100.6184)" class="st8 st9 st14">tagline here</text>
	</g>
</g>
</svg>
